<svg width="60" height="69" viewBox="0 0 60 69" fill="none" xmlns="http://www.w3.org/2000/svg">
<path d="M8.57143 29.7713H10.3795C13.6875 37.2806 21.2143 42.5305 30 42.5305C38.7857 42.5305 46.3125 37.2806 49.6205 29.7713H51.4286C52.6071 29.7713 53.5714 28.8144 53.5714 27.6448V14.8857C53.5714 13.7161 52.6071 12.7591 51.4286 12.7591H49.6205C46.3125 5.24986 38.7857 0 30 0C21.2143 0 13.6875 5.24986 10.3795 12.7591H8.57143C7.39286 12.7591 6.42857 13.7161 6.42857 14.8857V27.6448C6.42857 28.8144 7.39286 29.7713 8.57143 29.7713ZM13.9286 18.0755C13.9286 15.1382 16.808 12.7591 20.3571 12.7591H39.6429C43.192 12.7591 46.0714 15.1382 46.0714 18.0755V21.2652C46.0714 28.3094 40.3125 34.0244 33.2143 34.0244H26.7857C19.6875 34.0244 13.9286 28.3094 13.9286 21.2652V18.0755ZM23.5714 27.6448L25.1786 22.8601L30 21.2652L25.1786 19.6704L23.5714 14.8857L21.9643 19.6704L17.1429 21.2652L21.9643 22.8601L23.5714 27.6448ZM43.875 42.7166C39.8705 45.2817 35.1161 46.7835 30 46.7835C24.8839 46.7835 20.1295 45.2817 16.125 42.7166C7.08482 43.6602 0 51.1695 0 60.3933V61.6692C0 65.1913 2.87946 68.0488 6.42857 68.0488H17.1429V59.5427C17.1429 57.1902 19.058 55.2896 21.4286 55.2896H38.5714C40.942 55.2896 42.8571 57.1902 42.8571 59.5427V68.0488H53.5714C57.1205 68.0488 60 65.1913 60 61.6692V60.3933C60 51.1695 52.9152 43.6602 43.875 42.7166ZM36.4286 59.5427C35.25 59.5427 34.2857 60.4996 34.2857 61.6692C34.2857 62.8388 35.25 63.7957 36.4286 63.7957C37.6071 63.7957 38.5714 62.8388 38.5714 61.6692C38.5714 60.4996 37.6071 59.5427 36.4286 59.5427ZM23.5714 59.5427C22.3929 59.5427 21.4286 60.4996 21.4286 61.6692V68.0488H25.7143V61.6692C25.7143 60.4996 24.75 59.5427 23.5714 59.5427Z" />
</svg>
