<svg width="60" height="58" viewBox="0 0 60 58" fill="none" xmlns="http://www.w3.org/2000/svg">
  <path d="M40.5 48.784V54.882H35.19C34.17 56.7114 32.22 57.931 30 57.931C27.78 57.931 25.83 56.7114 24.81 54.882H19.5V48.784H24.81C25.32 47.8693 26.1 47.0766 27 46.5583V42.686H24C22.35 42.686 21 41.314 21 39.637V30.49H12V42.686C12 44.363 10.65 45.735 9 45.735H3C1.35 45.735 0 44.363 0 42.686V15.245C0 13.5681 1.35 12.196 3 12.196H9C10.65 12.196 12 13.5681 12 15.245V24.392H21V15.245C21 13.5681 22.35 12.196 24 12.196H27V9.14701H24C22.35 9.14701 21 7.77496 21 6.098V3.049C21 1.37205 22.35 0 24 0H36C37.65 0 39 1.37205 39 3.049V6.098C39 7.77496 37.65 9.14701 36 9.14701H33V12.196H36C37.65 12.196 39 13.5681 39 15.245V24.392H48V15.245C48 13.5681 49.35 12.196 51 12.196H57C58.65 12.196 60 13.5681 60 15.245V42.686C60 44.363 58.65 45.735 57 45.735H51C49.35 45.735 48 44.363 48 42.686V30.49H39V39.637C39 41.314 37.65 42.686 36 42.686H33V46.5583C33.9 47.0766 34.68 47.8693 35.19 48.784H40.5ZM3 39.637V42.686H9V39.637H3ZM3 33.539V36.588H9V33.539H3ZM3 27.441V30.49H9V27.441H3ZM3 21.343V24.392H9V21.343H3ZM3 15.245V18.294H9V15.245H3ZM51 39.637V42.686H57V39.637H51ZM51 33.539V36.588H57V33.539H51ZM51 27.441V30.49H57V27.441H51ZM51 21.343V24.392H57V21.343H51ZM51 15.245V18.294H57V15.245H51Z"/>
</svg>
