<svg width="60" height="31" viewBox="0 0 60 31" fill="none" xmlns="http://www.w3.org/2000/svg">
<path d="M30 3.63025C23.0381 3.63025 16.3613 6.30755 11.4384 11.0732C6.51562 15.8388 3.75 22.3024 3.75 29.042C3.75 29.5234 3.55246 29.9851 3.20083 30.3255C2.84919 30.6659 2.37228 30.8571 1.875 30.8571C1.37772 30.8571 0.900805 30.6659 0.549175 30.3255C0.197544 29.9851 0 29.5234 0 29.042C0 21.3396 3.16071 13.9526 8.7868 8.50621C14.4129 3.05978 22.0435 0 30 0C37.9565 0 45.5871 3.05978 51.2132 8.50621C56.8393 13.9526 60 21.3396 60 29.042C60 29.5234 59.8025 29.9851 59.4508 30.3255C59.0992 30.6659 58.6223 30.8571 58.125 30.8571C57.6277 30.8571 57.1508 30.6659 56.7992 30.3255C56.4475 29.9851 56.25 29.5234 56.25 29.042C56.25 22.3024 53.4844 15.8388 48.5616 11.0732C43.6387 6.30755 36.9619 3.63025 30 3.63025ZM30 10.8908C25.0272 10.8908 20.2581 12.8031 16.7417 16.2071C13.2254 19.6112 11.25 24.228 11.25 29.042C11.25 29.5234 11.0525 29.9851 10.7008 30.3255C10.3492 30.6659 9.87228 30.8571 9.375 30.8571C8.87772 30.8571 8.40081 30.6659 8.04918 30.3255C7.69754 29.9851 7.5 29.5234 7.5 29.042C7.5 26.1816 8.08198 23.3492 9.21271 20.7066C10.3434 18.0639 12.0008 15.6628 14.0901 13.6402C16.1794 11.6176 18.6598 10.0131 21.3896 8.91852C24.1194 7.8239 27.0453 7.2605 30 7.2605C32.9547 7.2605 35.8806 7.8239 38.6104 8.91852C41.3402 10.0131 43.8206 11.6176 45.9099 13.6402C47.9992 15.6628 49.6566 18.0639 50.7873 20.7066C51.918 23.3492 52.5 26.1816 52.5 29.042C52.5 29.5234 52.3025 29.9851 51.9508 30.3255C51.5992 30.6659 51.1223 30.8571 50.625 30.8571C50.1277 30.8571 49.6508 30.6659 49.2992 30.3255C48.9475 29.9851 48.75 29.5234 48.75 29.042C48.75 24.228 46.7746 19.6112 43.2583 16.2071C39.7419 12.8031 34.9728 10.8908 30 10.8908ZM30 18.1513C27.0163 18.1513 24.1548 19.2987 22.045 21.3411C19.9353 23.3835 18.75 26.1536 18.75 29.042C18.75 29.5234 18.5525 29.9851 18.2008 30.3255C17.8492 30.6659 17.3723 30.8571 16.875 30.8571C16.3777 30.8571 15.9008 30.6659 15.5492 30.3255C15.1975 29.9851 15 29.5234 15 29.042C15 25.1908 16.5804 21.4973 19.3934 18.7741C22.2064 16.0509 26.0218 14.521 30 14.521C33.9782 14.521 37.7936 16.0509 40.6066 18.7741C43.4197 21.4973 45 25.1908 45 29.042C45 29.5234 44.8025 29.9851 44.4508 30.3255C44.0992 30.6659 43.6223 30.8571 43.125 30.8571C42.6277 30.8571 42.1508 30.6659 41.7992 30.3255C41.4475 29.9851 41.25 29.5234 41.25 29.042C41.25 26.1536 40.0647 23.3835 37.955 21.3411C35.8452 19.2987 32.9837 18.1513 30 18.1513ZM30 25.4118C29.0054 25.4118 28.0516 25.7942 27.3484 26.475C26.6451 27.1558 26.25 28.0792 26.25 29.042C26.25 29.5234 26.0525 29.9851 25.7008 30.3255C25.3492 30.6659 24.8723 30.8571 24.375 30.8571C23.8777 30.8571 23.4008 30.6659 23.0492 30.3255C22.6975 29.9851 22.5 29.5234 22.5 29.042C22.5 27.1164 23.2902 25.2697 24.6967 23.9081C26.1032 22.5465 28.0109 21.7815 30 21.7815C31.9891 21.7815 33.8968 22.5465 35.3033 23.9081C36.7098 25.2697 37.5 27.1164 37.5 29.042C37.5 29.5234 37.3025 29.9851 36.9508 30.3255C36.5992 30.6659 36.1223 30.8571 35.625 30.8571C35.1277 30.8571 34.6508 30.6659 34.2992 30.3255C33.9475 29.9851 33.75 29.5234 33.75 29.042C33.75 28.0792 33.3549 27.1558 32.6516 26.475C31.9484 25.7942 30.9946 25.4118 30 25.4118Z"/>
</svg>
