<svg width="60" height="58" viewBox="0 0 60 58" fill="none" xmlns="http://www.w3.org/2000/svg">
  <path d="M33.6423 57.6923L28.7981 46.7478C33.464 45.0904 37.8327 42.8614 41.8746 40.261L33.6423 57.6923ZM11.3825 30.0023L0 25.3444L18.1288 17.4289C15.4243 21.3152 13.1062 25.5159 11.3825 30.0023ZM58.8443 1.11211C58.8443 1.11211 44.1332 -4.94883 27.3121 11.228C20.8036 17.4861 16.9103 24.3729 14.3842 30.4024C13.552 32.5456 14.1167 34.8888 15.7513 36.489L22.0815 42.5471C23.716 44.1474 26.153 44.6617 28.382 43.8616C34.7419 41.5184 41.8151 37.6892 48.3237 31.4311C65.1448 15.2572 58.8443 1.11211 58.8443 1.11211ZM37.8327 21.3152C35.5146 19.0863 35.5146 15.4572 37.8327 13.2283C40.1508 10.9994 43.9252 10.9994 46.2433 13.2283C48.5317 15.4572 48.5614 19.0863 46.2433 21.3152C43.9252 23.5442 40.1508 23.5442 37.8327 21.3152ZM13.1657 57.1494L23.9835 46.7478C22.9731 46.4906 21.9923 46.0619 21.1007 45.4618L8.97525 57.1494H13.1657ZM0.564668 57.1494H4.7551L18.9312 43.5473L14.7111 39.5181L0.564668 53.1202V57.1494ZM0.564668 49.0624L12.7199 37.4034C12.0958 36.5462 11.65 35.6317 11.3825 34.6316L0.564668 45.0332V49.0624Z"/>
</svg>
