<svg width="60" height="60" viewBox="0 0 60 60" fill="none" xmlns="http://www.w3.org/2000/svg">
  <path d="M14.6492 0C14.1028 1.11283 12.897 1.99614 11.6907 1.99614C13.3219 1.99614 14.9532 3.61049 14.9532 5.22484C14.9532 3.61049 16.5845 1.99614 18.2157 1.99614C17.0094 1.99614 15.8038 1.11283 15.2572 0H14.6492ZM54.1034 1.88341C54.1034 2.95964 53.0159 4.03587 51.9284 4.03587C53.0159 4.03587 54.1034 5.11211 54.1034 6.18834C54.1034 5.11211 55.1909 4.03587 56.2784 4.03587C55.1909 4.03587 54.1034 2.95964 54.1034 1.88341ZM44.3159 7.26457C44.3159 8.87892 42.6846 10.4933 41.0533 10.4933C42.6846 10.4933 44.3159 12.1076 44.3159 13.722C44.3159 12.1076 45.9471 10.4933 47.5784 10.4933C45.9471 10.4933 44.3159 8.87892 44.3159 7.26457ZM0 11.8477V33.1188V54.3899C12.7796 53.8517 27.2125 53.6291 41.1068 49.8396C46.9354 48.3712 51.521 46.6448 54.7464 44.6828C57.9722 42.7209 60 40.4151 60 37.7354C59.9878 36.5752 59.5093 35.3567 58.9109 34.4392C58.4574 33.7753 57.8723 33.1396 57.1736 32.5324C57.3815 32.0273 57.488 31.487 57.4872 30.9417C57.4872 28.624 55.615 26.7713 53.2731 26.7713C50.9313 26.7713 49.059 28.624 49.059 30.9417C49.059 33.2592 50.9313 35.1121 53.2731 35.1121C54.145 35.1121 54.9514 34.8552 55.6208 34.4131C56.6136 35.329 57.5084 36.4733 57.5531 37.7354C57.5531 39.1555 56.3487 40.8659 53.4652 42.6196C50.5817 44.3735 46.1816 46.0622 40.5029 47.493C28.0033 50.5816 12.7843 51.709 1.5497 51.9471C4.83709 51.3071 7.84037 49.8923 10.3589 47.9023C14.0154 47.6634 17.2822 47.3759 20.751 46.9501C20.388 46.1112 20.2131 45.3694 20.2715 44.5676C17.8008 44.8522 15.2479 45.1111 13.1108 45.2806C16.2083 41.7237 18.0798 37.0905 18.0798 32.0179C18.0798 21.604 10.194 13.0421 0 11.8477ZM18.1592 21.9697C18.5704 22.7927 18.9306 23.6397 19.2377 24.5061C27.1615 25.2708 34.4302 26.4479 40.5029 27.9779C42.7859 28.5529 44.858 29.1702 46.7122 29.8162C46.8531 29.0123 47.1447 28.2415 47.5718 27.5436C45.6252 26.8649 43.4702 26.2266 41.107 25.631C34.5358 23.9755 26.6866 22.7362 18.1592 21.9697ZM19.9163 26.8016C20.1122 27.6256 20.2611 28.46 20.3622 29.3006C23.9887 29.7488 27.3094 30.2965 30.221 30.9289C34.3886 31.8343 37.737 32.9173 39.9416 34.0495C41.0441 34.6154 41.8536 35.1962 42.335 35.7071C42.8162 36.2181 42.9565 36.5999 42.9565 36.9284C42.9565 37.2569 42.8165 37.6387 42.335 38.1496C41.8537 38.6606 41.044 39.2413 39.9416 39.8073C37.7371 40.9395 34.3886 42.0226 30.221 42.9278C29.7719 43.0253 29.3219 43.1189 28.8711 43.2085C29.1817 44.0506 29.2988 44.8084 29.1723 45.6187C29.6903 45.517 30.2467 45.4014 30.7457 45.2931C35.0405 44.3603 38.5404 43.255 41.0684 41.9568C42.3327 41.3076 43.3603 40.6125 44.1249 39.801C44.8892 38.9898 45.4035 38.0023 45.4035 36.9284C45.4035 35.8546 44.8892 34.8671 44.1249 34.0557C43.3603 33.2444 42.3327 32.5492 41.0686 31.9001C38.5407 30.6019 35.0408 29.4965 30.746 28.5638C27.5428 27.868 23.8992 27.2735 19.9163 26.8016ZM24.7408 42.9148C23.6002 42.9148 22.7017 43.804 22.7017 44.9327C22.7017 46.0614 23.6002 46.9507 24.7408 46.9507C25.8813 46.9507 26.7798 46.0614 26.7798 44.9327C26.7798 43.804 25.8813 42.9148 24.7408 42.9148ZM32.3533 55.6951C32.3533 56.7713 31.2658 57.8475 30.1783 57.8475C31.2658 57.8475 32.3533 58.9238 32.3533 60C32.3533 58.9238 33.4408 57.8475 34.5283 57.8475C33.4408 57.8475 32.3533 56.7713 32.3533 55.6951Z"/>
</svg>
