<svg width="242" height="232" viewBox="0 0 242 232" fill="none" xmlns="http://www.w3.org/2000/svg">
<g style="mix-blend-mode:multiply" opacity="0.2">
<path d="M20.315 138.341C20.0318 111.031 29.6361 84.5403 47.3556 63.7573C65.0751 42.9742 89.7138 29.3017 116.725 25.2629C143.736 21.2242 171.296 27.0917 194.32 41.7828C217.344 56.4739 234.276 78.9969 241.994 105.195C239.173 84.369 230.983 64.6343 218.23 47.9294C205.477 31.2244 188.599 18.1236 169.252 9.91331C149.906 1.70305 128.756 -1.3343 107.881 1.0995C87.0061 3.5333 67.1228 11.3546 50.184 23.7953C33.2451 36.236 19.8331 52.8684 11.2649 72.0592C2.69668 91.25 -0.733009 112.339 1.31254 133.256C3.35808 154.173 10.8085 174.198 22.9323 191.366C35.0561 208.533 51.4363 222.252 70.4644 231.175C55.1845 220.948 42.6305 207.147 33.8914 190.97C25.1523 174.793 20.4921 156.727 20.315 138.341Z" />
</g>
</svg>
