<svg width="222" height="209" viewBox="0 0 222 209" fill="none" xmlns="http://www.w3.org/2000/svg">
<g style="mix-blend-mode:multiply" opacity="0.2">
<path d="M17.1537 140.322C16.8903 116.745 23.6107 93.6091 36.4791 73.7928C49.3475 53.9764 67.7963 38.3533 89.5314 28.8664C111.267 19.3794 135.329 16.4471 158.727 20.434C182.124 24.4209 203.825 35.1512 221.13 51.2906C211.372 37.5204 198.812 25.9387 184.262 17.2948C169.712 8.65097 153.497 3.13749 136.665 1.11115C119.834 -0.91519 102.761 0.590722 86.5513 5.53148C70.3418 10.4722 55.3567 18.7378 42.5655 29.7933C29.7743 40.8488 19.462 54.448 12.2958 69.711C5.12968 84.974 1.26926 101.561 0.96437 118.398C0.659478 135.236 3.91685 151.949 10.5258 167.456C17.1348 182.963 26.9481 196.919 39.3308 208.421C25.1213 188.499 17.3832 164.737 17.1537 140.322Z" fill="#222226"/>
</g>
</svg>
